# xmcd CD database file
#
# Track frame offsets:
#	150
#	14069
#	31231
#	53648
#	72825
#	82943
#	93933
#	114478
#	124452
#	143421
#
# Disc length: 2169 seconds
#
# Revision: 0
# Processed by: cddbd v1.5.2PL0 Copyright (c) Steve Scherf et al.
# Submitted via: CDex 1.51
#
DISCID=7c08770a
DTITLE=blue magic - Magic fantasy
DYEAR=2004
DGENRE=Blues
TTITLE0=Shame shame shame (reed)
TTITLE1=Reconsider baby (fulson)
TTITLE2=Little by little (wells)
TTITLE3=f I could (eaglin)
TTITLE4=The same thing could happen to you (McCain)
TTITLE5=Magic fantasy (blue magic)
TTITLE6=19 years old (morganfield)
TTITLE7=Roll'em Pete (johnson)
TTITLE8=You don't have to go (reed)
TTITLE9=Same ol' blues (king)
EXTD=YEAR: 2004
EXTT0=
EXTT1=
EXTT2=
EXTT3=
EXTT4=
EXTT5=
EXTT6=
EXTT7=
EXTT8=
EXTT9=
PLAYORDER=
